<svg xmlns="http://www.w3.org/2000/svg" version="1.1" width="1024" height="1024" id="svg3036"><style>@media (prefers-color-scheme:dark){.icon{background-color:#f9f9f9}}</style><path class="icon" d="M530.908 276.69c-152.7 1.844-306.242 54.564-422.542 154.514-30.022 28.638-59.303 64.9-61.738 107.86 1.652 26.16 27.49 16.553 38.313 21.191 19.542 52.768 93.609 85.76 152.243 109.196 95.855 38.873 194.644 78.755 299.924 77.804 70.13.86 142.716-2.501 206.782-34.092 78.918-36.349 148.764-91.486 206.75-155.785 37.922-34.1 35.98-92.597-8.918-119.367-97.94-96.318-231.103-157.847-369.28-160.68a738.157 738.157 0 0 0-41.534-.641zm380.038 215.765c-27.955 38.116-65.725 75.803-105.851 109.062-45.36 33.195-95.204 56.638-150.18 68.741-67.123 18.285-138.904 20.964-206.057 1.44-100.332-21.74-202.3-46.814-289.669-103.064-21.901-12.9-49.01-32.243-68.387-36.544 35.405-32.368 88.503-100.826 156.228-124.795 32.56 90.247 141.972 217.562 325.45 212.326 49.94 1.879 98.815-20.538 136.803-51.742 38.905-37.874 75.109-80.856 90.232-133.726 3.764-33.97 6.128-36.067 39.833-10.132 25.53 21.022 47.199 46.135 71.598 68.434z" id="path3072" style="fill:#000;stroke:#000;stroke-width:1.0961411px;stroke-linecap:butt;stroke-linejoin:miter;stroke-opacity:1"/></svg>